<svg xmlns="http://www.w3.org/2000/svg" width="120" height="120">
  <!-- 8-point star (khatam) tile — repeats seamlessly -->
  <!-- Center star -->
  <path d="M60,15 L67.65,41.52 L91.82,28.18 L78.48,52.35 L105,60 L78.48,67.65 L91.82,91.82 L67.65,78.48 L60,105 L52.35,78.48 L28.18,91.82 L41.52,67.65 L15,60 L41.52,52.35 L28.18,28.18 L52.35,41.52 Z"
    fill="none" stroke="rgba(201,168,76,0.18)" stroke-width="1.2" stroke-linejoin="round"/>
  <!-- Inner octagon -->
  <path d="M60,35 L71.5,48.5 L85,60 L71.5,71.5 L60,85 L48.5,71.5 L35,60 L48.5,48.5 Z"
    fill="none" stroke="rgba(201,168,76,0.10)" stroke-width="0.8"/>
  <!-- Axis cross-lines for tiling guidance -->
  <line x1="60" y1="0" x2="60" y2="14" stroke="rgba(201,168,76,0.08)" stroke-width="0.8"/>
  <line x1="60" y1="106" x2="60" y2="120" stroke="rgba(201,168,76,0.08)" stroke-width="0.8"/>
  <line x1="0" y1="60" x2="14" y2="60" stroke="rgba(201,168,76,0.08)" stroke-width="0.8"/>
  <line x1="106" y1="60" x2="120" y2="60" stroke="rgba(201,168,76,0.08)" stroke-width="0.8"/>
  <!-- Corner diamond hints (quarter stars from adjacent tiles) -->
  <path d="M0,0 L8,4 L0,8" fill="none" stroke="rgba(201,168,76,0.09)" stroke-width="0.8"/>
  <path d="M120,0 L112,4 L120,8" fill="none" stroke="rgba(201,168,76,0.09)" stroke-width="0.8"/>
  <path d="M0,120 L8,116 L0,112" fill="none" stroke="rgba(201,168,76,0.09)" stroke-width="0.8"/>
  <path d="M120,120 L112,116 L120,112" fill="none" stroke="rgba(201,168,76,0.09)" stroke-width="0.8"/>
</svg>
